<?xml version="1.0" encoding="iso-8859-1"?>
<!-- Generator: Adobe Illustrator 19.0.0, SVG Export Plug-In . SVG Version: 6.00 Build 0)  -->
<svg version="1.1" id="Layer_1" xmlns="http://www.w3.org/2000/svg" xmlns:xlink="http://www.w3.org/1999/xlink"
	 viewBox="0 0 502 502" style="enable-background:new 0 0 502 502;" xml:space="preserve" width="30" height="30" >
<g>
	<g>
		<path d="M477.357,383.977L317.316,157.002c-1.528-2.167-3.855-3.639-6.469-4.091c-2.614-0.454-5.3,0.152-7.467,1.681
			l-27.158,19.149L234.24,118.53c3.848-9.809,5.964-20.481,5.964-31.639C240.205,38.979,201.227,0,153.314,0
			c-47.913,0-86.89,38.979-86.89,86.891v117.386h-33.61c-5.522,0-10,4.478-10,10V492c0,5.522,4.478,10,10,10h87.22
			c5.522,0,10-4.478,10-10V214.276c0-5.522-4.478-10-10-10h-33.61V86.891c0-36.884,30.007-66.891,66.89-66.891
			s66.891,30.007,66.891,66.891c0,4.022-0.377,7.956-1.061,11.785L186.52,55.771c-0.266-0.35-0.555-0.682-0.864-0.993
			c-8.62-8.683-20.106-13.464-32.342-13.464c-25.131,0-45.576,20.445-45.576,45.576c0,25.131,20.445,45.576,45.576,45.576
			c5.522,0,10-4.478,10-10c0-5.522-4.478-10-10-10c-14.103,0-25.576-11.474-25.576-25.576c0-14.102,11.474-25.576,25.576-25.576
			c6.663,0,12.932,2.527,17.718,7.13l39.865,52.428c-11.658,19.679-33.099,32.909-57.583,32.909c-5.522,0-10,4.478-10,10
			c0,5.522,4.478,10,10,10c28.937,0,54.61-14.221,70.411-36.038l36.142,47.531l-27.768,19.58c-4.514,3.183-5.593,9.422-2.41,13.936
			l160.042,226.974c1.528,2.167,3.855,3.639,6.469,4.091c0.566,0.099,1.137,0.146,1.704,0.146c2.05,0,4.065-0.631,5.763-1.827
			l71.28-50.261C479.461,394.729,480.54,388.49,477.357,383.977z M110.031,224.276V482H42.814v-15.81l49.119-49.119
			c3.905-3.905,3.905-10.237,0-14.143c-3.906-3.904-10.236-3.904-14.143,0l-34.977,34.977V402.19l49.119-49.119
			c3.905-3.905,3.905-10.237,0-14.143c-3.906-3.904-10.236-3.904-14.143,0l-34.977,34.977V338.19l49.119-49.119
			c3.905-3.905,3.905-10.237,0-14.143c-3.906-3.904-10.236-3.904-14.143,0l-34.977,34.977v-85.629H110.031z M400.314,426.064
			l-9.108-12.917l11.265-63.798c0.96-5.439-2.67-10.627-8.108-11.587c-5.445-0.96-10.627,2.671-11.587,8.108l-7.812,44.242
			l-20.639-29.27l11.265-63.799c0.96-5.439-2.67-10.627-8.108-11.587c-5.446-0.959-10.627,2.671-11.587,8.108l-7.812,44.242
			l-20.639-29.27l11.265-63.799c0.96-5.439-2.67-10.627-8.108-11.587c-5.447-0.958-10.627,2.671-11.587,8.108l-7.812,44.242
			l-49.405-70.066l54.936-38.736l148.516,210.629L400.314,426.064z"/>
	</g>
</g>
<g>
</g>
<g>
</g>
<g>
</g>
<g>
</g>
<g>
</g>
<g>
</g>
<g>
</g>
<g>
</g>
<g>
</g>
<g>
</g>
<g>
</g>
<g>
</g>
<g>
</g>
<g>
</g>
<g>
</g>
</svg>
